# xmcd
#
# Track frame offsets: 
#        150
#        21009
#        39198
#        56661
#        72668
#        95093
#        113138
#        133153
#        149149
#        168781
#
# Disc length: 2534 seconds
#
# Revision: 0
# Processed by: cddbd v1.5.1PL0 Copyright (c) Steve Scherf et al.
# Submitted via: ExactAudioCopy v0.95a5
#
DISCID=9209e40a
DTITLE=El Jeffrey - No Te Puedo Perdonar
DYEAR=2005
DGENRE=Latin
TTITLE0=Luisa Maria
TTITLE1=Te Veo Venir Soledad
TTITLE2=No Te Puedo Perdonar
TTITLE3=Nunca Voy A Olvidarte
TTITLE4=Ajena
TTITLE5=Se Me Va La Vida
TTITLE6=No Dices Nada
TTITLE7=Usted Se Me Llevo La Vida
TTITLE8=Falso Amor
TTITLE9=Eso Eres Tu
EXTD=
EXTT0=
EXTT1=
EXTT2=
EXTT3=
EXTT4=
EXTT5=
EXTT6=
EXTT7=
EXTT8=
EXTT9=
PLAYORDER=
